<?xml version="1.0" standalone="no"?>
<!DOCTYPE svg PUBLIC "-//W3C//DTD SVG 20010904//EN"
 "http://www.w3.org/TR/2001/REC-SVG-20010904/DTD/svg10.dtd">
<svg version="1.0" xmlns="http://www.w3.org/2000/svg"
 width="980.000000pt" height="956.000000pt" viewBox="0 0 980.000000 956.000000"
 preserveAspectRatio="xMidYMid meet">

<g transform="translate(0.000000,956.000000) scale(0.100000,-0.100000)"
fill="#000000" stroke="none">
<path d="M3900 9534 c-121 -31 -306 -145 -391 -240 -17 -19 -330 -787 -927
-2269 -496 -1232 -913 -2271 -926 -2310 -43 -124 -58 -198 -59 -285 -2 -151
50 -242 171 -298 47 -22 71 -27 137 -27 74 0 84 3 134 34 110 71 55 -58 1021
2387 489 1235 891 2248 893 2251 3 3 1113 -271 2467 -608 2310 -576 2461 -615
2457 -634 -2 -11 -473 -1156 -1047 -2544 l-1042 -2525 -215 -430 c-277 -554
-343 -661 -511 -838 -134 -140 -283 -236 -422 -269 -167 -41 -429 18 -598 134
-101 69 -244 190 -290 245 -73 87 -141 266 -163 428 -19 145 3 316 70 539 16
55 28 101 27 102 -2 2 -192 55 -423 117 -906 247 -1210 340 -1588 486 -323
126 -1232 504 -1430 595 -103 48 -1187 496 -1191 492 -1 -1 -15 -124 -30 -272
-29 -299 -29 -517 1 -724 61 -422 223 -758 483 -1003 166 -155 66 -109 2287
-1066 2194 -946 2112 -913 2400 -962 418 -72 814 -28 1112 123 153 78 339 234
446 374 26 33 245 432 486 885 l440 823 865 2195 c475 1207 908 2299 961 2425
182 432 249 623 280 799 68 394 -111 634 -588 791 -174 57 -93 39 -2492 545
-1149 242 -2206 465 -2348 495 -277 59 -356 66 -457 39z"/>
<path d="M4345 7788 c-132 -25 -282 -141 -339 -262 -44 -94 -60 -192 -47 -284
62 -417 573 -575 854 -263 175 196 165 484 -24 674 -121 121 -274 168 -444
135z"/>
<path d="M5629 6937 c-103 -166 -184 -305 -180 -308 11 -12 1802 -491 1815
-486 15 6 377 587 374 602 -1 9 -1786 496 -1813 495 -5 -1 -94 -137 -196 -303z"/>
<path d="M3835 6306 c-179 -44 -327 -196 -364 -374 -47 -227 66 -451 279 -551
67 -31 86 -35 176 -39 196 -8 338 65 444 229 54 84 73 164 68 286 -3 88 -7
106 -41 176 -43 91 -131 186 -213 229 -102 55 -237 72 -349 44z"/>
<path d="M5135 5459 c-102 -166 -183 -305 -178 -309 17 -15 1815 -492 1822
-484 14 15 371 595 371 603 0 6 -1794 492 -1816 491 -7 0 -96 -136 -199 -301z"/>
<path d="M3333 4825 c-167 -45 -305 -183 -349 -349 -8 -28 -14 -85 -14 -126 0
-373 386 -604 725 -433 62 32 162 132 197 199 77 143 77 325 0 468 -34 65
-133 164 -198 198 -104 56 -249 73 -361 43z"/>
<path d="M4572 4262 c-58 -83 -363 -584 -358 -589 5 -5 1802 -493 1816 -493 5
0 337 530 368 587 8 14 12 26 10 28 -3 3 -572 157 -1353 366 -225 61 -422 114
-437 119 -24 8 -30 5 -46 -18z"/>
</g>
</svg>
